<svg id="svg" version="1.1" xmlns="http://www.w3.org/2000/svg" xmlns:xlink="http://www.w3.org/1999/xlink" width="400" height="120" viewBox="0, 0, 400,120"><g id="svgg"><path id="path0" d="M85.667 19.625 C 84.288 20.314,84.420 21.599,86.106 23.917 C 87.356 25.635,88.369 27.675,89.940 31.635 C 91.009 34.332,91.660 35.841,93.334 39.500 C 94.687 42.460,95.336 44.018,95.906 45.671 C 96.207 46.544,96.577 47.499,96.729 47.792 C 96.880 48.086,97.300 49.209,97.660 50.288 C 98.020 51.367,98.699 53.262,99.168 54.500 C 99.637 55.737,100.309 57.575,100.662 58.583 C 101.015 59.592,101.766 61.542,102.332 62.917 C 104.670 68.601,104.593 68.047,104.348 77.410 C 104.018 90.002,103.855 93.904,103.563 96.131 C 103.074 99.864,103.123 99.895,109.357 99.704 C 115.600 99.514,115.478 99.597,115.241 95.701 C 115.028 92.214,114.991 70.811,115.196 69.333 C 115.431 67.634,117.168 62.107,120.092 53.750 C 120.605 52.283,121.349 50.146,121.744 49.000 C 122.490 46.839,123.568 43.811,124.919 40.083 C 126.460 35.830,127.530 32.726,127.994 31.167 C 128.772 28.548,130.319 24.185,130.823 23.187 C 132.560 19.743,132.298 19.549,125.725 19.399 C 118.381 19.232,118.672 19.002,119.070 24.667 C 119.272 27.542,118.819 29.342,115.926 37.167 C 115.536 38.221,114.787 40.433,114.261 42.083 C 113.735 43.733,113.048 45.796,112.734 46.667 C 112.420 47.538,112.022 48.745,111.850 49.350 C 110.723 53.319,109.590 53.818,108.156 50.978 C 107.487 49.655,105.838 45.345,104.178 40.583 C 103.543 38.760,102.310 35.677,101.612 34.167 C 101.050 32.950,100.142 29.779,99.584 27.083 C 99.432 26.350,99.251 24.604,99.182 23.203 C 98.984 19.190,99.304 19.356,91.750 19.343 C 86.836 19.335,86.188 19.365,85.667 19.625 M312.500 19.625 C 310.983 20.384,311.202 21.461,313.587 24.949 C 314.552 26.360,315.431 28.214,316.816 31.758 C 317.560 33.661,318.592 36.077,319.838 38.833 C 321.237 41.928,322.299 44.467,322.941 46.250 C 323.272 47.167,323.716 48.262,323.928 48.685 C 324.141 49.107,324.505 50.128,324.737 50.953 C 324.969 51.779,325.319 52.821,325.515 53.269 C 325.711 53.717,326.120 54.796,326.424 55.667 C 327.577 58.963,328.348 61.000,329.424 63.583 C 331.463 68.484,331.409 67.993,331.175 79.250 C 330.959 89.706,330.759 93.765,330.341 96.163 C 329.706 99.815,329.869 99.913,336.256 99.705 C 342.890 99.490,342.740 99.671,341.893 92.874 C 341.680 91.169,341.655 89.418,341.743 82.290 C 341.801 77.593,341.839 72.916,341.828 71.896 C 341.797 69.137,342.641 65.937,345.690 57.250 C 346.899 53.804,347.921 50.875,348.829 48.250 C 349.761 45.552,350.946 42.240,352.167 38.917 C 352.639 37.633,353.240 35.908,353.505 35.083 C 354.904 30.713,357.347 23.785,357.810 22.873 C 359.463 19.617,358.521 19.217,349.555 19.368 C 345.523 19.436,345.472 19.497,345.835 23.796 C 346.103 26.971,345.817 28.615,344.228 33.025 C 343.622 34.707,341.974 39.514,340.567 43.706 C 339.160 47.899,337.854 51.633,337.664 52.006 C 336.531 54.225,335.281 52.553,332.737 45.417 C 330.386 38.820,329.403 36.231,328.532 34.333 C 327.235 31.506,326.011 25.908,325.991 22.701 C 325.969 19.361,325.908 19.333,318.590 19.334 C 313.681 19.334,313.020 19.365,312.500 19.625 M41.230 19.739 C 39.992 20.278,39.896 21.230,40.756 24.417 C 41.623 27.627,41.657 29.007,41.661 61.917 C 41.666 93.673,41.682 93.105,40.736 95.982 C 40.092 97.941,40.072 98.118,40.411 98.928 C 40.836 99.945,41.164 100.000,46.844 100.000 C 54.178 100.000,53.825 100.371,52.551 94.000 C 52.108 91.786,52.101 91.642,52.092 85.083 L 52.083 78.417 52.522 77.481 C 53.311 75.798,56.075 74.381,62.872 72.176 C 66.161 71.109,68.396 69.455,70.980 66.175 C 73.679 62.749,74.500 60.541,75.416 54.250 C 77.035 43.136,76.591 34.958,74.009 28.335 C 71.967 23.098,68.693 20.749,62.030 19.745 C 59.753 19.402,42.016 19.397,41.230 19.739 M141.869 19.745 C 140.871 20.190,140.709 20.953,141.231 22.760 C 142.184 26.057,142.449 33.468,142.181 49.333 C 141.950 63.085,142.165 85.030,142.547 86.672 C 144.626 95.601,152.252 101.378,160.583 100.336 C 170.512 99.094,175.201 94.404,176.933 83.983 C 177.191 82.431,177.235 79.889,177.354 59.667 C 177.427 47.246,177.553 33.483,177.633 29.083 C 177.828 18.487,178.436 19.500,171.880 19.500 C 165.749 19.501,165.697 19.536,166.297 23.280 C 166.957 27.398,166.991 28.788,166.995 52.527 C 167.000 80.367,166.875 83.014,165.402 86.111 C 164.301 88.427,162.955 89.497,160.386 90.099 C 156.445 91.023,154.389 88.953,153.070 82.732 L 152.614 80.583 152.649 57.833 C 152.678 39.192,152.729 34.617,152.932 32.500 C 153.068 31.079,153.291 28.717,153.427 27.250 C 153.563 25.783,153.826 23.946,154.012 23.167 C 154.539 20.962,154.084 19.966,152.458 19.767 C 150.455 19.521,142.408 19.504,141.869 19.745 M217.391 19.678 C 214.009 19.938,213.731 20.459,214.556 25.000 C 215.550 30.467,216.017 40.179,215.485 44.277 C 215.219 46.320,215.169 52.943,215.388 56.917 C 215.645 61.561,213.201 62.527,211.361 58.510 C 211.129 58.002,210.008 55.824,208.870 53.669 C 206.770 49.690,206.435 49.011,204.966 45.750 C 201.132 37.244,199.551 32.624,198.256 26.147 C 196.976 19.743,196.784 19.558,191.536 19.699 C 186.551 19.834,186.138 20.306,186.818 25.092 C 187.225 27.957,187.496 32.050,187.500 35.417 C 187.502 36.700,187.652 39.175,187.833 40.917 C 188.260 45.021,188.315 62.559,187.917 67.667 C 187.601 71.719,187.606 73.773,187.941 77.500 C 188.174 80.097,188.188 81.004,188.030 83.250 C 187.900 85.085,187.888 87.070,187.993 89.613 C 188.155 93.558,188.084 94.545,187.498 96.471 C 186.485 99.800,187.151 100.258,193.250 100.432 C 200.332 100.634,200.596 100.394,199.560 94.667 C 199.173 92.524,199.108 91.608,198.990 86.583 C 198.917 83.467,198.775 79.229,198.675 77.167 C 198.402 71.523,198.383 61.221,198.642 59.500 C 198.962 57.384,199.351 56.967,200.344 57.674 C 200.968 58.119,204.034 63.460,206.176 67.833 C 206.423 68.337,207.562 70.512,208.707 72.667 C 212.250 79.332,213.025 81.032,214.712 85.833 L 215.561 88.250 215.665 93.250 C 215.816 100.563,215.824 100.573,221.372 100.361 C 225.278 100.212,225.709 99.826,225.318 96.837 C 225.223 96.113,225.196 93.893,225.254 91.583 C 225.370 86.950,225.545 47.271,225.497 36.333 C 225.461 28.052,225.584 26.249,226.346 23.936 C 227.708 19.798,226.052 19.011,217.391 19.678 M237.419 19.918 C 236.128 20.378,236.027 21.229,236.918 24.167 C 237.909 27.440,238.103 31.417,238.249 51.500 C 238.298 58.329,238.422 65.792,238.524 68.083 C 239.034 79.560,238.351 93.094,237.085 96.590 C 235.755 100.264,235.963 100.391,243.435 100.469 C 250.936 100.547,251.442 100.211,249.917 96.167 C 249.456 94.943,249.443 94.817,249.319 90.250 C 249.249 87.683,249.078 84.458,248.939 83.083 C 248.736 81.077,248.646 75.531,248.486 55.000 C 248.270 27.284,248.257 27.866,249.167 24.136 C 249.885 21.196,249.763 20.441,248.484 19.930 C 247.568 19.563,238.443 19.553,237.419 19.918 M262.417 19.971 C 260.978 20.666,260.727 21.116,259.823 24.612 C 258.735 28.818,259.027 29.492,261.827 29.231 C 267.689 28.686,273.112 29.430,274.675 30.993 C 276.448 32.765,276.558 35.411,276.389 72.250 C 276.300 91.669,276.340 90.847,275.302 94.917 C 273.949 100.228,274.302 100.532,281.750 100.464 C 288.671 100.401,289.323 100.070,288.408 97.083 C 287.950 95.593,287.499 92.143,287.405 89.417 C 287.355 87.950,287.193 85.775,287.046 84.583 C 286.747 82.155,286.749 82.451,286.881 64.667 C 286.940 56.740,287.046 51.364,287.154 50.750 C 287.252 50.200,287.333 47.800,287.335 45.417 C 287.342 35.907,288.025 30.493,289.340 29.521 C 290.438 28.710,294.936 28.366,299.679 28.732 L 301.608 28.881 302.160 28.388 C 303.612 27.091,301.593 20.816,299.598 20.424 C 296.703 19.856,283.421 19.690,273.578 20.100 C 272.276 20.154,270.318 20.113,269.161 20.008 C 264.948 19.624,263.157 19.614,262.417 19.971 M58.577 29.250 C 65.247 29.958,66.352 31.923,66.573 43.469 C 66.811 55.896,64.654 60.955,58.349 62.763 C 55.421 63.603,53.324 63.126,52.432 61.417 C 52.051 60.688,52.075 61.667,52.124 48.792 C 52.133 46.523,52.133 44.348,52.124 43.958 C 52.115 43.569,52.170 41.525,52.246 39.417 C 52.346 36.624,52.326 35.053,52.172 33.630 C 51.697 29.230,52.595 28.616,58.577 29.250 " stroke="none" fill="#1d2321" fill-rule="evenodd"></path></g></svg>